<?xml version="1.0" standalone="no"?>
<!DOCTYPE svg PUBLIC "-//W3C//DTD SVG 20010904//EN"
 "http://www.w3.org/TR/2001/REC-SVG-20010904/DTD/svg10.dtd">
<svg version="1.0" xmlns="http://www.w3.org/2000/svg"
 width="500.000000pt" height="500.000000pt" viewBox="0 0 500.000000 500.000000"
 preserveAspectRatio="xMidYMid meet">

<g transform="translate(0.000000,500.000000) scale(0.100000,-0.100000)"
fill="#000000" stroke="none">
<path d="M2340 3982 c-24 -11 -43 -32 -59 -65 -21 -42 -22 -53 -13 -86 33
-109 167 -140 241 -55 57 64 35 171 -42 207 -45 22 -83 21 -127 -1z"/>
<path d="M2180 3746 c0 -49 5 -56 75 -114 l40 -32 -3 -77 c-4 -103 4 -135 31
-131 21 3 22 8 24 123 l2 120 -59 43 c-48 35 -59 49 -62 75 -2 24 -8 33 -25
35 -21 3 -23 -1 -23 -42z"/>
<path d="M2575 3778 c-2 -7 -5 -24 -7 -37 -2 -17 -21 -37 -61 -64 l-58 -39 3
-97 3 -96 69 -8 c53 -6 73 -4 83 6 24 24 5 45 -48 52 l-49 7 0 52 c0 50 1 52
55 94 53 42 55 45 55 93 0 43 -3 49 -20 49 -11 0 -23 -6 -25 -12z"/>
<path d="M1892 3622 c-13 -10 -25 -33 -28 -54 -12 -74 78 -117 131 -63 69 68
-26 176 -103 117z"/>
<path d="M2806 3615 c-66 -61 -2 -165 81 -130 58 24 70 85 27 129 -34 33 -73
34 -108 1z"/>
<path d="M1352 3520 c-18 -17 -20 -25 -11 -41 10 -19 9 -20 -11 -9 -15 8 -20
8 -16 1 4 -6 2 -11 -3 -11 -6 0 -11 -14 -11 -31 0 -64 82 -110 142 -78 16 9
24 7 43 -11 13 -12 26 -34 30 -48 13 -54 70 -68 110 -27 29 28 32 61 9 94 -14
20 -23 23 -60 18 -52 -5 -76 14 -79 69 -4 72 -95 119 -143 74z"/>
<path d="M3328 3511 c-25 -22 -32 -36 -32 -68 -1 -55 -20 -75 -62 -67 -18 3
-41 3 -52 0 -20 -7 -46 -54 -40 -74 2 -6 -20 -35 -48 -64 -28 -29 -54 -59 -58
-65 -8 -15 10 -53 26 -53 5 0 37 27 69 59 42 43 64 58 78 54 28 -7 61 14 76
51 21 51 47 69 78 55 34 -15 73 -4 108 31 64 63 19 170 -72 170 -28 0 -47 -8
-71 -29z"/>
<path d="M1724 3500 c-44 -17 -29 -100 17 -100 39 0 59 19 59 56 0 28 -5 36
-26 44 -14 6 -26 10 -27 9 -1 0 -12 -4 -23 -9z"/>
<path d="M3004 3485 c-26 -40 -4 -85 43 -85 48 0 71 61 35 93 -27 24 -59 21
-78 -8z"/>
<path d="M1987 3394 c-10 -10 -9 -42 2 -48 18 -11 42 6 39 28 -3 21 -28 33
-41 20z"/>
<path d="M2774 3386 c-9 -24 4 -48 23 -44 12 2 18 12 18 28 0 29 -32 41 -41
16z"/>
<path d="M1837 3324 c-4 -4 -7 -18 -7 -31 0 -20 5 -24 23 -21 16 2 22 10 22
28 0 24 -23 39 -38 24z"/>
<path d="M2914 3315 c-9 -23 3 -45 25 -45 25 0 34 14 26 40 -7 23 -43 27 -51
5z"/>
<path d="M1376 3185 c-21 -32 -20 -47 5 -79 39 -50 113 -25 113 38 0 47 -19
66 -64 66 -29 0 -41 -6 -54 -25z"/>
<path d="M3306 3188 c-34 -48 -4 -108 54 -108 58 0 88 60 54 108 -11 16 -25
22 -54 22 -29 0 -43 -6 -54 -22z"/>
<path d="M2730 3169 c0 -5 -5 -7 -10 -4 -6 4 -9 1 -8 -6 2 -7 -10 -17 -27 -23
-16 -6 -36 -17 -43 -23 -7 -7 -22 -13 -33 -13 -27 0 -23 -17 6 -24 28 -7 31
-15 13 -39 -12 -15 -16 -14 -49 2 -30 15 -39 16 -54 5 -10 -7 -30 -11 -45 -7
-15 3 -31 0 -34 -6 -5 -7 0 -9 11 -5 14 4 14 3 -2 -8 -15 -9 -22 -26 -24 -58
-4 -56 -6 -60 -36 -60 -19 0 -24 6 -28 33 -3 22 -4 16 -5 -20 -2 -41 -6 -55
-22 -63 -30 -16 -40 -4 -40 46 0 68 -16 52 -19 -18 -2 -44 -7 -65 -19 -74 -24
-18 -32 -8 -32 41 0 43 -12 65 -25 45 -3 -5 -1 -10 4 -10 7 0 11 -22 11 -53 0
-40 -5 -58 -18 -70 -33 -30 -42 -21 -42 43 0 33 -3 60 -7 60 -5 0 -6 -65 -5
-145 l4 -145 -26 0 -26 0 0 97 c0 53 -3 93 -7 89 -4 -4 -10 -109 -13 -234 -4
-193 -7 -227 -20 -227 -13 0 -16 39 -24 252 -5 144 -12 250 -17 247 -5 -3 -6
-11 -3 -17 4 -7 4 -9 -1 -5 -4 4 -15 2 -23 -5 -13 -10 -14 -9 -7 2 5 10 4 12
-3 7 -7 -4 -12 -17 -13 -29 0 -12 -3 -16 -6 -9 -2 6 -9 12 -14 12 -6 0 -7 -4
-4 -10 3 -5 -5 -12 -18 -16 -18 -4 -23 -11 -20 -24 7 -26 -14 -34 -42 -16 -14
9 -25 12 -25 6 0 -5 -6 -9 -12 -7 -10 1 -14 -34 -16 -145 l-3 -148 -24 0 -24
0 -3 138 c-3 119 -5 133 -15 109 -8 -17 -17 -25 -24 -21 -7 4 -18 -1 -25 -10
-12 -16 -14 -16 -35 5 -18 18 -21 19 -16 4 4 -9 2 -24 -4 -32 -18 -21 -4 -195
22 -273 26 -79 40 -107 92 -185 55 -80 91 -118 162 -172 152 -115 331 -170
517 -160 226 12 398 92 551 257 293 317 233 827 -127 1069 -39 27 -79 47 -89
45 -9 -1 -15 2 -11 7 3 5 -2 9 -10 9 -9 0 -16 -5 -16 -11z m-12 -152 c15 -12
-2 -37 -25 -37 -11 0 -14 7 -10 27 5 26 4 26 -9 9 -11 -16 -16 -17 -28 -6 -12
9 -13 17 -5 31 9 18 11 18 37 2 15 -9 33 -21 40 -26z m56 -45 c23 -25 25 -31
12 -41 -23 -19 -38 -5 -25 22 9 18 9 20 -2 10 -19 -19 -39 -16 -39 5 0 40 18
41 54 4z m-276 -56 c3 -76 -2 -88 -35 -75 -21 7 -23 15 -23 72 0 70 4 79 35
75 18 -3 20 -11 23 -72z m67 -31 c1 -55 -4 -85 -14 -85 -19 1 -32 21 -37 62
-8 60 -1 80 28 76 20 -3 23 -9 23 -53z m251 7 c-12 -12 -19 -13 -28 -4 -9 9
-7 16 7 32 17 19 20 19 28 4 6 -11 4 -21 -7 -32z m-393 -133 c-1 -63 -4 -113
-8 -113 -47 12 -45 6 -45 121 0 60 3 112 6 116 3 3 16 2 27 -2 21 -8 22 -14
20 -122z m431 122 c9 -15 -23 -36 -36 -23 -5 5 -7 15 -4 21 9 13 33 14 40 2z
m-224 -66 c0 -36 -3 -65 -7 -65 -3 0 -15 7 -25 17 -13 11 -18 30 -18 65 0 45
2 48 25 48 24 0 25 -2 25 -65z m250 20 c0 -18 -32 -29 -41 -13 -4 7 -1 17 9
24 19 14 32 9 32 -11z m-529 -60 c-5 -30 -14 -45 -38 -60 -48 -30 -42 -50 20
-69 221 -65 267 -81 271 -91 2 -6 2 -32 -1 -57 -5 -41 -9 -47 -47 -66 -22 -12
-56 -31 -73 -42 l-33 -22 0 40 c0 35 4 43 35 62 52 32 45 47 -37 71 -40 11
-115 34 -165 51 l-93 30 0 48 0 48 64 42 c36 23 70 48 77 56 19 23 28 4 20
-41z m347 -73 l3 -122 -26 0 -25 0 0 118 c0 65 3 122 7 126 4 4 14 5 23 4 12
-3 15 -25 18 -126z m-164 69 l70 -39 -3 -54 c-3 -63 -17 -82 -54 -72 -24 5
-27 11 -27 48 0 39 -3 43 -35 56 -19 8 -35 16 -36 19 0 3 -3 17 -5 31 -5 27 1
50 13 50 4 0 39 -18 77 -39z m366 25 c0 -20 -26 -40 -35 -26 -10 16 2 40 20
40 8 0 15 -6 15 -14z m-135 -262 l0 -234 -22 0 -23 0 0 233 c0 129 3 236 6
239 3 3 13 4 22 1 15 -4 17 -27 17 -239z m155 212 c0 -17 -27 -29 -35 -16 -4
6 -3 15 0 20 9 15 35 12 35 -4z m110 -163 c0 -82 3 -158 6 -170 5 -20 2 -23
-19 -23 l-26 0 -3 166 c-2 91 -1 168 1 170 2 2 13 4 23 4 17 0 18 -11 18 -147z
m-90 105 c0 -5 -9 -8 -20 -8 -22 0 -28 26 -7 33 12 4 27 -10 27 -25z m-920
-143 l0 -165 -25 0 -25 0 0 165 0 165 25 0 25 0 0 -165z m330 140 c0 -23 -2
-24 -21 -15 -16 9 -18 14 -8 26 17 21 29 17 29 -11z m480 -146 l0 -159 -25 0
-25 0 0 158 c0 87 3 161 6 164 3 3 14 4 25 1 18 -5 19 -15 19 -164z m-356 155
c23 -9 22 -67 -1 -62 -12 2 -19 14 -21 36 -3 34 -2 35 22 26z m-594 -145 c0
-99 0 -99 -25 -99 -25 0 -25 0 -25 99 0 71 4 101 13 104 31 11 37 -5 37 -104z
m1085 1 c0 -91 -1 -95 -22 -98 -23 -3 -23 -1 -23 98 0 99 0 101 23 98 21 -3
22 -7 22 -98z m-1015 -5 c0 -95 0 -95 -25 -95 -25 0 -25 0 -25 95 0 95 0 95
25 95 25 0 25 0 25 -95z m950 -1 c0 -93 -1 -95 -22 -92 -21 3 -23 9 -26 82 -3
92 0 106 28 106 19 0 20 -6 20 -96z m-1166 30 c9 -3 16 -17 16 -30 0 -19 -5
-24 -25 -24 -20 0 -25 5 -25 23 0 34 8 41 34 31z m524 0 c18 -5 22 -13 22 -43
0 -33 4 -39 35 -54 31 -15 35 -21 35 -57 0 -22 -3 -40 -6 -40 -4 0 -40 18 -80
41 l-74 40 0 49 c0 60 18 77 68 64z m842 -29 c0 -20 -5 -25 -25 -25 -20 0 -25
5 -25 25 0 20 5 25 25 25 20 0 25 -5 25 -25z m-750 -27 c0 -23 -4 -29 -16 -24
-9 3 -18 6 -20 6 -2 0 -4 13 -4 29 0 24 3 28 20 24 14 -4 20 -14 20 -35z
m-200 -128 l0 -150 -25 0 -25 0 0 150 0 150 25 0 25 0 0 -150z m252 141 l23
-9 -5 -348 c-5 -341 -5 -349 -25 -349 -20 0 -20 8 -23 358 -1 196 0 357 2 357
3 0 15 -4 28 -9z m296 -138 c-3 -140 -4 -148 -23 -148 -19 0 -20 8 -23 148
l-3 147 26 0 26 0 -3 -147z m-215 110 c8 -7 -25 -33 -35 -27 -4 3 -5 11 -1 19
5 16 25 20 36 8z m-270 -199 c-1 -102 -3 -109 -22 -112 -20 -3 -21 1 -21 124
l0 126 23 -15 c21 -14 22 -21 20 -123z m417 11 c0 -118 -1 -125 -20 -125 -19
0 -20 7 -20 115 0 98 2 115 18 124 9 6 18 11 20 11 1 0 2 -56 2 -125z m-734
94 c3 -6 0 -15 -7 -20 -22 -14 -29 -11 -29 11 0 21 24 27 36 9z m1044 -10 c0
-15 -4 -19 -16 -15 -9 3 -18 6 -20 6 -2 0 -4 7 -4 15 0 8 9 15 20 15 14 0 20
-7 20 -21z m-660 -69 c0 -33 -4 -40 -19 -40 -14 0 -20 9 -23 33 -6 53 0 69 23
57 14 -8 19 -21 19 -50z m280 10 c0 -43 -3 -50 -20 -50 -17 0 -20 7 -20 40 0
33 15 57 38 60 1 0 2 -22 2 -50z m-650 16 c0 -20 -19 -31 -32 -18 -6 6 -7 15
-4 21 10 16 36 13 36 -3z m1010 -6 c0 -22 -7 -25 -29 -11 -16 10 -6 31 15 31
8 0 14 -9 14 -20z m-990 -45 c0 -19 -27 -26 -40 -10 -8 10 -7 16 7 23 20 12
33 7 33 -13z m420 -183 c0 -201 -1 -208 -20 -208 -19 0 -20 7 -20 208 0 201 1
208 20 208 19 0 20 -7 20 -208z m138 1 c-3 -200 -4 -208 -23 -208 -19 0 -20 6
-17 115 1 63 2 157 2 208 0 86 1 92 20 92 20 0 20 -5 18 -207z m415 191 c3 -3
3 -12 0 -20 -4 -10 -10 -11 -24 -3 -11 5 -17 14 -14 20 7 10 28 12 38 3z
m-949 -43 c9 -15 -23 -36 -36 -23 -5 5 -7 15 -4 21 9 13 33 14 40 2z m926 -11
c0 -11 -6 -20 -14 -20 -18 0 -29 16 -21 30 11 18 35 11 35 -10z m-600 -51 c0
-57 -1 -60 -22 -57 -13 2 -23 9 -22 16 1 6 2 32 3 57 1 38 4 45 21 45 18 0 20
-7 20 -61z m280 1 c0 -53 -2 -60 -20 -60 -18 0 -20 7 -20 60 0 53 2 60 20 60
18 0 20 -7 20 -60z m-585 20 c10 -16 -16 -43 -28 -31 -11 11 -2 41 12 41 5 0
13 -5 16 -10z m874 -3 c12 -15 5 -27 -16 -27 -7 0 -13 9 -13 20 0 23 13 26 29
7z m-843 -38 c10 -17 -13 -36 -27 -22 -12 12 -4 33 11 33 5 0 12 -5 16 -11z
m817 -4 c4 -8 2 -17 -4 -21 -12 -7 -41 15 -33 27 8 14 31 11 37 -6z m-783 -34
c0 -13 -26 -32 -33 -24 -14 13 -6 33 13 33 11 0 20 -4 20 -9z m753 2 c4 -3 2
-12 -4 -20 -9 -10 -15 -10 -25 -2 -8 6 -11 15 -8 20 6 11 28 12 37 2z m-719
-32 c8 -12 -21 -34 -33 -27 -6 4 -8 13 -4 21 6 17 29 20 37 6z m681 -11 c0
-22 -29 -18 -33 3 -3 14 1 18 15 15 10 -2 18 -10 18 -18z m-649 -39 c-22 -21
-46 0 -26 24 10 12 16 13 27 3 12 -10 12 -13 -1 -27z m609 9 c0 -22 -29 -18
-33 3 -3 14 1 18 15 15 10 -2 18 -10 18 -18z m-559 -11 c10 -16 -18 -40 -35
-29 -12 7 -12 11 -2 24 16 19 27 20 37 5z m522 -12 c2 -10 -3 -17 -12 -17 -18
0 -29 16 -21 31 9 14 29 6 33 -14z m-478 -22 c0 -19 -20 -29 -31 -18 -14 14 0
43 17 36 8 -3 14 -11 14 -18z m434 9 c7 -17 0 -34 -14 -34 -11 0 -21 30 -14
41 8 14 21 11 28 -7z m-398 -40 c-5 -13 -10 -14 -18 -6 -6 6 -8 18 -4 28 5 13
10 14 18 6 6 -6 8 -18 4 -28z m354 16 c0 -11 -7 -20 -15 -20 -15 0 -21 21 -8
33 12 13 23 7 23 -13z m-304 -11 c10 -17 -13 -36 -27 -22 -12 12 -4 33 11 33
5 0 12 -5 16 -11z m259 -9 c0 -22 -29 -18 -33 3 -3 14 1 18 15 15 10 -2 18
-10 18 -18z"/>
<path d="M3170 3095 c-16 -19 -3 -55 20 -55 23 0 36 36 20 55 -7 8 -16 15 -20
15 -4 0 -13 -7 -20 -15z"/>
<path d="M1573 3084 c-3 -8 2 -23 11 -32 15 -15 17 -15 32 0 21 21 11 48 -16
48 -11 0 -23 -7 -27 -16z"/>
<path d="M3712 3068 c-18 -18 -15 -66 6 -76 9 -6 27 -6 40 -1 39 15 25 89 -18
89 -9 0 -21 -5 -28 -12z"/>
<path d="M984 3056 c-9 -23 -1 -48 19 -60 25 -16 52 4 52 40 0 25 -4 29 -33
32 -22 2 -34 -2 -38 -12z"/>
<path d="M1250 2980 c-29 -29 -27 -90 3 -118 50 -47 137 -10 137 58 0 67 -93
107 -140 60z"/>
<path d="M3422 2980 c-30 -28 -30 -92 0 -120 31 -28 88 -27 116 3 29 30 30 89
2 117 -27 27 -89 27 -118 0z"/>
<path d="M3276 2865 c-20 -20 -20 -20 -1 -39 19 -18 45 -10 45 14 0 29 -25 43
-44 25z"/>
<path d="M1470 2845 c0 -22 4 -26 23 -23 14 2 22 10 22 23 0 13 -8 21 -22 23
-19 3 -23 -1 -23 -23z"/>
<path d="M2074 2833 c5 -8 1 -13 -11 -14 -16 0 -16 -1 1 -8 19 -7 18 -8 -4
-14 -28 -7 -25 -12 12 -21 24 -5 26 -4 24 19 -2 14 -9 31 -16 38 -10 9 -11 9
-6 0z"/>
<path d="M1945 2770 c-3 -5 -1 -10 4 -10 6 0 11 5 11 10 0 6 -2 10 -4 10 -3 0
-8 -4 -11 -10z"/>
<path d="M988 2743 c-22 -6 -24 -39 -2 -47 9 -3 44 -6 78 -6 59 0 66 -2 109
-40 l45 -40 155 0 c125 0 157 3 167 15 7 8 10 22 6 30 -4 12 -31 15 -158 15
l-153 0 -49 40 c-46 38 -51 40 -115 39 -36 -1 -74 -3 -83 -6z"/>
<path d="M3610 2743 c-8 -3 -32 -21 -53 -39 l-37 -34 -135 0 c-112 0 -137 -3
-141 -15 -4 -8 -1 -22 6 -30 10 -12 41 -15 152 -15 l140 0 45 40 c43 37 48 39
121 42 66 3 77 6 80 22 2 10 -2 22 -10 27 -14 10 -144 11 -168 2z"/>
<path d="M963 2621 c-105 -48 -103 -206 3 -252 61 -28 108 -18 157 33 33 35
37 44 37 93 0 46 -4 59 -31 89 -26 31 -79 56 -114 56 -5 0 -29 -9 -52 -19z"/>
<path d="M3671 2622 c-126 -64 -95 -241 46 -268 49 -9 114 26 142 77 68 120
-65 255 -188 191z"/>
<path d="M1221 2486 c-13 -15 -5 -46 13 -46 299 -13 316 -11 316 29 0 28 -18
31 -175 31 -109 0 -145 -3 -154 -14z"/>
<path d="M3252 2488 c-7 -7 -12 -18 -12 -25 0 -26 41 -34 161 -31 99 2 124 6
132 19 6 9 7 24 4 33 -5 14 -25 16 -140 16 -90 0 -137 -4 -145 -12z"/>
<path d="M1156 2303 c-30 -22 -53 -29 -105 -33 -58 -4 -66 -8 -66 -25 0 -18 8
-20 74 -23 65 -3 79 0 105 20 26 19 46 24 118 26 67 3 89 1 92 -10 2 -7 14
-47 26 -88 27 -92 93 -219 155 -300 49 -63 68 -72 84 -41 9 15 1 31 -40 87
-68 93 -123 210 -151 319 l-23 90 -115 3 c-112 2 -116 2 -154 -25z"/>
<path d="M1577 2318 c-5 -17 15 -93 41 -148 50 -110 168 -248 275 -322 158
-108 322 -159 511 -159 207 0 345 44 507 162 151 110 285 303 297 429 4 50 4
52 -18 48 -19 -2 -28 -15 -45 -68 -37 -115 -84 -189 -180 -285 -72 -73 -108
-100 -180 -137 -118 -60 -210 -88 -320 -95 -284 -17 -553 107 -725 335 -41 56
-85 146 -114 235 -6 20 -42 23 -49 5z"/>
<path d="M3363 2318 c-7 -13 -53 -179 -56 -207 -1 -7 5 -18 15 -24 26 -17 43
6 68 93 26 87 29 90 117 90 40 0 58 -5 81 -25 27 -22 39 -25 111 -25 65 0 83
3 88 16 9 24 -7 32 -82 40 -48 5 -81 14 -105 31 -30 20 -46 23 -132 23 -67 0
-99 -4 -105 -12z"/>
<path d="M1252 2158 c-18 -18 -15 -36 7 -48 26 -14 29 -13 41 11 19 35 -20 65
-48 37z"/>
<path d="M3482 2158 c-18 -18 -15 -36 9 -48 26 -14 51 4 47 34 -3 24 -37 33
-56 14z"/>
<path d="M1257 2048 c-57 -44 -29 -147 40 -148 81 -1 123 101 60 145 -26 18
-77 19 -100 3z"/>
<path d="M3421 2034 c-28 -36 -27 -79 4 -109 50 -51 135 -15 135 58 0 72 -95
107 -139 51z"/>
<path d="M3196 1931 c-45 -58 -57 -93 -36 -106 19 -11 45 5 75 48 45 63 57 87
51 103 -12 30 -45 13 -90 -45z"/>
<path d="M1380 1810 c-26 -26 -26 -81 -2 -103 29 -27 88 -22 108 8 20 30 13
81 -14 101 -25 20 -69 17 -92 -6z"/>
<path d="M3311 1804 c-42 -53 -16 -114 48 -114 47 0 71 24 71 73 0 65 -79 92
-119 41z"/>
<path d="M992 1798 c-17 -17 -15 -53 3 -68 8 -7 25 -10 40 -6 43 11 30 86 -15
86 -9 0 -21 -5 -28 -12z"/>
<path d="M3711 1796 c-7 -8 -11 -27 -9 -43 3 -25 7 -28 37 -28 25 0 36 5 42
21 16 44 -42 85 -70 50z"/>
<path d="M3027 1783 c-19 -18 -2 -53 52 -108 32 -33 63 -73 68 -90 5 -16 22
-37 36 -45 24 -13 30 -13 54 0 78 44 48 149 -38 133 -19 -3 -36 8 -84 56 -57
59 -74 69 -88 54z"/>
<path d="M1681 1719 c-52 -57 -55 -59 -93 -53 -49 8 -78 -15 -78 -61 0 -49
-44 -85 -104 -85 -39 0 -53 -5 -77 -29 -24 -25 -29 -38 -29 -79 0 -44 4 -54
31 -76 78 -66 205 15 169 109 -9 25 -7 32 16 56 21 22 32 26 59 22 36 -6 75
22 75 55 0 10 24 42 54 71 l54 54 72 -48 c83 -55 201 -108 233 -103 14 2 23
11 25 26 3 18 -3 25 -30 34 -66 23 -184 88 -232 128 -26 22 -58 39 -70 39 -12
-1 -44 -26 -75 -60z"/>
<path d="M2903 1673 c-24 -8 -13 -38 37 -98 33 -39 50 -69 50 -87 0 -48 57
-77 88 -46 18 18 14 65 -7 80 -10 7 -44 43 -75 80 -58 68 -72 78 -93 71z"/>
<path d="M2706 1604 c-38 -14 -103 -29 -145 -35 -122 -16 -111 -2 -111 -148
l0 -128 60 -46 c36 -28 60 -55 60 -66 0 -22 25 -45 40 -36 5 3 10 24 10 45 0
34 -6 44 -55 85 l-55 47 0 88 0 88 56 7 c67 8 186 40 226 61 21 11 28 21 26
37 -4 30 -29 30 -112 1z"/>
<path d="M2168 1564 c-5 -4 -8 -15 -8 -25 0 -19 52 -39 103 -39 l27 0 0 -89 0
-89 -55 -47 c-49 -42 -55 -52 -55 -85 0 -23 5 -40 14 -43 17 -7 36 11 36 34 0
10 27 39 60 65 l60 47 0 127 c0 103 -3 129 -15 133 -26 11 -160 19 -167 11z"/>
<path d="M1712 1518 c-19 -19 -14 -63 9 -84 19 -17 23 -17 47 -3 30 16 41 61
21 85 -14 17 -60 19 -77 2z"/>
<path d="M3343 1510 c-26 -11 -53 -59 -53 -94 0 -81 85 -130 159 -92 58 30 69
119 22 167 -31 31 -81 38 -128 19z"/>
<path d="M1881 1424 c-26 -34 -27 -74 -1 -107 26 -33 63 -41 101 -22 80 42 51
155 -40 155 -31 0 -44 -6 -60 -26z"/>
<path d="M2795 1425 c-35 -34 -33 -78 4 -116 34 -34 54 -36 98 -10 39 24 51
67 29 109 -26 50 -91 58 -131 17z"/>
<path d="M2345 1220 c-73 -36 -99 -109 -63 -179 30 -58 77 -84 136 -77 80 10
122 58 122 140 0 53 -33 99 -87 121 -46 20 -60 19 -108 -5z"/>
</g>
</svg>
